<svg xmlns="http://www.w3.org/2000/svg" viewBox="0 0 120 120"><defs><linearGradient id="g" x1="0" y1="0" x2="1" y2="1"><stop stop-color="#d8ddd5"/><stop offset=".45" stop-color="#90ac96"/><stop offset="1" stop-color="#304937"/></linearGradient><filter id="s"><feDropShadow dx="3" dy="5" stdDeviation="3" flood-opacity=".45"/></filter></defs><g fill="url(#g)" stroke="#8ba78e" stroke-width="1" stroke-linejoin="round" filter="url(#s)"><path d="M18 53l14 -8 14 8 -14 8Z" fill="#c3cdc1"/><path d="M18 53l14 8v10l-14 -8Z" fill="#718c77"/><path d="M32 61l14 -8v10l-14 8Z" fill="#344c3c"/><path d="M44 23l14 -8 14 8 -14 8Z" fill="#c3cdc1"/><path d="M44 23l14 8v40l-14 -8Z" fill="#718c77"/><path d="M58 31l14 -8v40l-14 8Z" fill="#344c3c"/><path d="M70 38l14 -8 14 8 -14 8Z" fill="#c3cdc1"/><path d="M70 38l14 8v25l-14 -8Z" fill="#718c77"/><path d="M84 46l14 -8v25l-14 8Z" fill="#344c3c"/><path d="M18 57l14 -8 14 8 -14 8Z" fill="#c3cdc1"/><path d="M18 57l14 8v25l-14 -8Z" fill="#718c77"/><path d="M32 65l14 -8v25l-14 8Z" fill="#344c3c"/><path d="M44 72l14 -8 14 8 -14 8Z" fill="#c3cdc1"/><path d="M44 72l14 8v10l-14 -8Z" fill="#718c77"/><path d="M58 80l14 -8v10l-14 8Z" fill="#344c3c"/><path d="M70 72l14 -8 14 8 -14 8Z" fill="#c3cdc1"/><path d="M70 72l14 8v10l-14 -8Z" fill="#718c77"/><path d="M84 80l14 -8v10l-14 8Z" fill="#344c3c"/></g></svg>