<svg xmlns="http://www.w3.org/2000/svg" width="1080" height="1440" viewBox="0 0 1080 1440"><title>Web Designss — Content</title><defs><linearGradient id="bg" x2=".9" y2="1"><stop stop-color="#25453e"/><stop offset=".6" stop-color="#122c27"/><stop offset="1" stop-color="#0b1e1b"/></linearGradient><linearGradient id="glass" x2="1" y2="1"><stop stop-color="#dfe8db" stop-opacity=".16"/><stop offset="1" stop-color="#dfe8db" stop-opacity=".025"/></linearGradient><linearGradient id="gold" x2="1" y2="1"><stop stop-color="#fff4d7"/><stop offset=".5" stop-color="#c9ad76"/><stop offset="1" stop-color="#eee3c8"/></linearGradient><radialGradient id="halo"><stop stop-color="#b9d4ba" stop-opacity=".12"/><stop offset="1" stop-color="#b9d4ba" stop-opacity="0"/></radialGradient></defs><rect width="1080" height="1440" fill="url(#bg)"/><circle cx="900" cy="540" r="620" fill="url(#halo)"/><rect x="28" y="28" width="1024" height="1384" rx="65" fill="none" stroke="#e4eadc" stroke-opacity=".2"/><text x="76" y="112" font-family="Arial" font-size="32" fill="#faf5e8" font-weight="600">Web Designss</text><text x="1000" y="112" font-family="Arial" font-size="26" fill="#d9c99e" text-anchor="end">07</text><path d="M76 155H1004" stroke="#dce4d7" stroke-opacity=".2"/><text x="76" y="226" font-family="Arial" font-size="20" fill="#d9c99e" letter-spacing="4">CONTENT</text><text x="76" y="320" font-family="Georgia" font-size="64" fill="#faf5e8" >Less noise.</text><text x="76" y="394" font-family="Georgia" font-size="64" fill="#faf5e8" >More meaning.</text><rect x="104" y="478" width="872" height="565" rx="24" fill="url(#glass)" stroke="#dce4d7" stroke-opacity=".23"/><path d="M140 550L940 550" stroke="#d5c395" stroke-width="3" fill="none"/><text x="144" y="523" font-family="Arial" font-size="20" fill="#d9e1d9" >Web Designss</text><text x="156" y="660" font-family="Georgia" font-size="42" fill="#faf5e8" >A story worth telling.</text><rect x="156" y="700" width="510" height="8" rx="4" fill="#dce4d7" opacity=".3"/><rect x="156" y="730" width="420" height="8" rx="4" fill="#dce4d7" opacity=".3"/><rect x="156" y="760" width="460" height="8" rx="4" fill="#dce4d7" opacity=".3"/><rect x="156" y="838" width="238" height="64" rx="32" fill="#e9e4d5" stroke="#dce4d7" stroke-opacity=".23"/><text x="186" y="879" font-family="Arial" font-size="22" fill="#17352c" >Explore with us</text><rect x="695" y="640" width="216" height="78" rx="15" fill="url(#glass)" stroke="#dce4d7" stroke-opacity=".23"/><text x="721" y="690" font-family="Arial" font-size="22" fill="#d9e1d9" >Discover</text><rect x="695" y="745" width="216" height="78" rx="15" fill="url(#glass)" stroke="#dce4d7" stroke-opacity=".23"/><text x="721" y="795" font-family="Arial" font-size="22" fill="#d9e1d9" >Explore</text><rect x="695" y="850" width="216" height="78" rx="15" fill="url(#glass)" stroke="#dce4d7" stroke-opacity=".23"/><text x="721" y="900" font-family="Arial" font-size="22" fill="#d9e1d9" >Connect</text><text x="76" y="1140" font-family="Arial" font-size="29" fill="#d9e1d9" >A clear story helps visitors find their next step.</text><text x="76" y="1260" font-family="Arial" font-size="22" fill="#c3cfbf" >Hierarchy / Story / Action</text><path d="M76 1310H1004" stroke="#dce4d7" stroke-opacity=".2"/><text x="76" y="1366" font-family="Arial" font-size="18" fill="#bdcdbd" letter-spacing="2">WEB DESIGNSS  /  OUR CRAFT</text><text x="1000" y="1366" font-family="Arial" font-size="24" fill="#ede2c8" text-anchor="end">Communicate  ↗</text></svg>