<svg xmlns="http://www.w3.org/2000/svg" width="1200" height="760" viewBox="0 0 1200 760" role="img" aria-label="Websites with presence — Web Designss studio concept">
<defs><radialGradient id="bg"><stop stop-color="#345b48"/><stop offset="1" stop-color="#10271f"/></radialGradient><linearGradient id="metal" x1="0" y1="0" x2="1" y2="1"><stop stop-color="#fff7df"/><stop offset=".3" stop-color="#dc9a9f"/><stop offset=".6" stop-color="#9c5969"/><stop offset=".83" stop-color="#f9ded8"/><stop offset="1" stop-color="#c8838b"/></linearGradient><linearGradient id="panel" x2="1" y2="1"><stop stop-color="#345b46"/><stop offset="1" stop-color="#172f25"/></linearGradient><pattern id="grid" width="60" height="60" patternUnits="userSpaceOnUse"><path d="M60 0H0V60" fill="none" stroke="#d4e6be" stroke-opacity=".045"/></pattern></defs>
<rect width="1200" height="760" fill="url(#bg)"/><rect width="1200" height="760" fill="url(#grid)"/>
<text x="58" y="65" fill="#f7f5ed" font-family="Arial" font-size="20" letter-spacing="4">WEB DESIGNSS</text><text x="1140" y="65" fill="#c8d6bd" font-family="Arial" font-size="15" text-anchor="end" letter-spacing="2">07 / STUDIO CONCEPT</text>
<rect x="105" y="170" width="990" height="470" rx="18" fill="#112820" stroke="#b3cfac55"/><path d="M105 212H1095" stroke="#b3cfac55"/><circle cx="128" cy="191" r="4" fill="#c5aa75" opacity="1.0"/><circle cx="144" cy="191" r="4" fill="#c5aa75" opacity="0.75"/><circle cx="160" cy="191" r="4" fill="#c5aa75" opacity="0.5"/><text x="195" y="197" fill="#b7c9b7" font-family="Arial" font-size="12" >webdesignss / studio concept</text><text x="155" y="265" fill="#f7f5ed" font-family="Arial" font-size="16" letter-spacing="4">WEB DESIGNSS</text><text x="155" y="355" fill="#f7f5ed" font-family="Georgia" font-size="65" >Made to</text><text x="155" y="424" fill="#f7f5ed" font-family="Georgia" font-size="65" >be remembered.</text><text x="155" y="475" fill="#c4d5c3" font-family="Arial" font-size="20" >Distinctive websites. Thoughtful details.</text><rect x="155" y="520" width="170" height="48" rx="24" fill="#f1eee2" stroke="#b3cfac55"/><text x="180" y="551" fill="#203b2e" font-family="Arial" font-size="16" >Explore the studio</text><circle cx="888" cy="387" r="145" fill="url(#metal)"/><ellipse cx="888" cy="387" rx="188.5" ry="52.199999999999996" fill="none" stroke="#efd29b" stroke-width="2" transform="rotate(-30 888 387)"/>
<path d="M58 683H1142" stroke="#c49b5155"/><text x="58" y="724" fill="#f7f5ed" font-family="Arial" font-size="28" >Websites with presence</text><text x="1140" y="722" fill="#cddcbc" font-family="Arial" font-size="14" text-anchor="end" letter-spacing="2">WEB DESIGN</text>
</svg>