<svg xmlns="http://www.w3.org/2000/svg" width="1200" height="760" viewBox="0 0 1200 760" role="img" aria-label="Clarity meets character — Web Designss studio concept">
<defs><radialGradient id="bg"><stop stop-color="#345b48"/><stop offset="1" stop-color="#10271f"/></radialGradient><linearGradient id="metal" x1="0" y1="0" x2="1" y2="1"><stop stop-color="#fff7df"/><stop offset=".3" stop-color="#dc9a9f"/><stop offset=".6" stop-color="#9c5969"/><stop offset=".83" stop-color="#f9ded8"/><stop offset="1" stop-color="#c8838b"/></linearGradient><linearGradient id="panel" x2="1" y2="1"><stop stop-color="#345b46"/><stop offset="1" stop-color="#172f25"/></linearGradient><pattern id="grid" width="60" height="60" patternUnits="userSpaceOnUse"><path d="M60 0H0V60" fill="none" stroke="#d4e6be" stroke-opacity=".045"/></pattern></defs>
<rect width="1200" height="760" fill="url(#bg)"/><rect width="1200" height="760" fill="url(#grid)"/>
<text x="58" y="65" fill="#f7f5ed" font-family="Arial" font-size="20" letter-spacing="4">WEB DESIGNSS</text><text x="1140" y="65" fill="#c8d6bd" font-family="Arial" font-size="15" text-anchor="end" letter-spacing="2">10 / STUDIO CONCEPT</text>
<rect x="110" y="165" width="980" height="480" rx="18" fill="#112820" stroke="#b3cfac55"/><path d="M110 207H1090" stroke="#b3cfac55"/><circle cx="133" cy="186" r="4" fill="#c5aa75" opacity="1.0"/><circle cx="149" cy="186" r="4" fill="#c5aa75" opacity="0.75"/><circle cx="165" cy="186" r="4" fill="#c5aa75" opacity="0.5"/><text x="200" y="192" fill="#b7c9b7" font-family="Arial" font-size="12" >webdesignss / studio concept</text><rect x="132" y="222" width="185" height="398" rx="15" fill="#1e1a12" stroke="#b3cfac55"/><text x="158" y="270" fill="#f7f5ed" font-family="Arial" font-size="18" >WD / workspace</text><rect x="155" y="300" width="136" height="31" rx="6" fill="#302719" stroke="#b3cfac55"/><rect x="155" y="352" width="136" height="31" rx="6" fill="#211d14" stroke="#b3cfac55"/><rect x="155" y="404" width="136" height="31" rx="6" fill="#211d14" stroke="#b3cfac55"/><rect x="155" y="456" width="136" height="31" rx="6" fill="#211d14" stroke="#b3cfac55"/><rect x="155" y="508" width="136" height="31" rx="6" fill="#211d14" stroke="#b3cfac55"/><text x="350" y="269" fill="#f7f5ed" font-family="Georgia" font-size="38" >A clearer view.</text><rect x="350" y="307" width="215" height="94" rx="15" fill="url(#panel)" stroke="#b3cfac55"/><text x="369" y="344" fill="#c9b99a" font-family="Arial" font-size="15" >PLAN</text><text x="369" y="379" fill="#f7f5ed" font-family="Arial" font-size="27" >Discover</text><rect x="586" y="307" width="215" height="94" rx="15" fill="url(#panel)" stroke="#b3cfac55"/><text x="605" y="344" fill="#c9b99a" font-family="Arial" font-size="15" >DESIGN</text><text x="605" y="379" fill="#f7f5ed" font-family="Arial" font-size="27" >Refine</text><rect x="822" y="307" width="215" height="94" rx="15" fill="url(#panel)" stroke="#b3cfac55"/><text x="841" y="344" fill="#c9b99a" font-family="Arial" font-size="15" >BUILD</text><text x="841" y="379" fill="#f7f5ed" font-family="Arial" font-size="27" >Launch</text><rect x="350" y="423" width="687" height="190" rx="15" fill="#1a1711" stroke="#b3cfac55"/><rect x="387" y="540" width="35" height="40" rx="5" fill="url(#metal)" stroke="#b3cfac55"/><rect x="457" y="505" width="35" height="75" rx="5" fill="url(#metal)" stroke="#b3cfac55"/><rect x="527" y="525" width="35" height="55" rx="5" fill="url(#metal)" stroke="#b3cfac55"/><rect x="597" y="470" width="35" height="110" rx="5" fill="url(#metal)" stroke="#b3cfac55"/><rect x="667" y="484" width="35" height="96" rx="5" fill="url(#metal)" stroke="#b3cfac55"/><rect x="737" y="443" width="35" height="137" rx="5" fill="url(#metal)" stroke="#b3cfac55"/><rect x="807" y="460" width="35" height="120" rx="5" fill="url(#metal)" stroke="#b3cfac55"/><rect x="877" y="430" width="35" height="150" rx="5" fill="url(#metal)" stroke="#b3cfac55"/>
<path d="M58 683H1142" stroke="#c49b5155"/><text x="58" y="724" fill="#f7f5ed" font-family="Arial" font-size="28" >Clarity meets character</text><text x="1140" y="722" fill="#cddcbc" font-family="Arial" font-size="14" text-anchor="end" letter-spacing="2">INTERFACE DESIGN</text>
</svg>